<svg id="visual" viewBox="0 0 900 600" width="900" height="600" xmlns="http://www.w3.org/2000/svg" xmlns:xlink="http://www.w3.org/1999/xlink" version="1.1"><rect x="0" y="0" width="900" height="600" fill="#908cca"></rect><path d="M0 299L129 299L129 365L257 365L257 376L386 376L386 347L514 347L514 320L643 320L643 381L771 381L771 286L900 286L900 264L900 601L900 601L771 601L771 601L643 601L643 601L514 601L514 601L386 601L386 601L257 601L257 601L129 601L129 601L0 601Z" fill="#382d3f"></path><path d="M0 461L129 461L129 435L257 435L257 461L386 461L386 412L514 412L514 417L643 417L643 423L771 423L771 370L900 370L900 359L900 601L900 601L771 601L771 601L643 601L643 601L514 601L514 601L386 601L386 601L257 601L257 601L129 601L129 601L0 601Z" fill="#2d2732"></path><path d="M0 496L129 496L129 473L257 473L257 532L386 532L386 452L514 452L514 516L643 516L643 532L771 532L771 545L900 545L900 444L900 601L900 601L771 601L771 601L643 601L643 601L514 601L514 601L386 601L386 601L257 601L257 601L129 601L129 601L0 601Z" fill="#232125"></path></svg>