<svg id="visual" viewBox="0 0 900 600" width="900" height="600" xmlns="http://www.w3.org/2000/svg" xmlns:xlink="http://www.w3.org/1999/xlink" version="1.1"><g stroke-width="1" stroke-linejoin="bevel"><path d="M406 318.9L306 353.9L391 365.9Z" fill="#4c454b" stroke="#4c454b"></path><path d="M406 318.9L387 264.1L306 353.9Z" fill="#2a2934" stroke="#2a2934"></path><path d="M387 264.1L292 271.1L306 353.9Z" fill="#36323b" stroke="#36323b"></path><path d="M406 318.9L413 233.1L387 264.1Z" fill="#1e212c" stroke="#1e212c"></path><path d="M387 264.1L321 190.4L292 271.1Z" fill="#111924" stroke="#111924"></path><path d="M306 353.9L408 426.6L391 365.9Z" fill="#413b43" stroke="#413b43"></path><path d="M391 365.9L549 379.6L406 318.9Z" fill="#413b43" stroke="#413b43"></path><path d="M557 288.1L494 193.4L413 233.1Z" fill="#111924" stroke="#111924"></path><path d="M292 271.1L230 307.9L306 353.9Z" fill="#111924" stroke="#111924"></path><path d="M311 490.3L407 474.6L408 426.6Z" fill="#2a2934" stroke="#2a2934"></path><path d="M413 233.1L378 203.4L387 264.1Z" fill="#756f6f" stroke="#756f6f"></path><path d="M292 271.1L213 213.4L230 307.9Z" fill="#1e212c" stroke="#1e212c"></path><path d="M378 203.4L321 190.4L387 264.1Z" fill="#1e212c" stroke="#1e212c"></path><path d="M230 307.9L228 395.6L306 353.9Z" fill="#00101c" stroke="#00101c"></path><path d="M133 460.6L227 407.6L228 395.6Z" fill="#756f6f" stroke="#756f6f"></path><path d="M228 395.6L227 407.6L306 353.9Z" fill="#4c454b" stroke="#4c454b"></path><path d="M311 490.3L408 426.6L306 353.9Z" fill="#1e212c" stroke="#1e212c"></path><path d="M557 288.1L413 233.1L406 318.9Z" fill="#2a2934" stroke="#2a2934"></path><path d="M227 407.6L311 490.3L306 353.9Z" fill="#00101c" stroke="#00101c"></path><path d="M321 190.4L213 213.4L292 271.1Z" fill="#36323b" stroke="#36323b"></path><path d="M54 351.9L133 460.6L228 395.6Z" fill="#36323b" stroke="#36323b"></path><path d="M549 379.6L391 365.9L408 426.6Z" fill="#00101c" stroke="#00101c"></path><path d="M413 233.1L460 144.4L378 203.4Z" fill="#574f53" stroke="#574f53"></path><path d="M378 203.4L390 67.7L321 190.4Z" fill="#2a2934" stroke="#2a2934"></path><path d="M407 474.6L549 379.6L408 426.6Z" fill="#111924" stroke="#111924"></path><path d="M348 546.3L417 520.3L407 474.6Z" fill="#6b6465" stroke="#6b6465"></path><path d="M407 474.6L559 561.3L549 379.6Z" fill="#2a2934" stroke="#2a2934"></path><path d="M549 379.6L555 302.9L406 318.9Z" fill="#574f53" stroke="#574f53"></path><path d="M609 225.1L557 288.1L631 344.9Z" fill="#413b43" stroke="#413b43"></path><path d="M555 302.9L557 288.1L406 318.9Z" fill="#756f6f" stroke="#756f6f"></path><path d="M494 193.4L460 144.4L413 233.1Z" fill="#00101c" stroke="#00101c"></path><path d="M139 90.7L158 220.1L213 213.4Z" fill="#413b43" stroke="#413b43"></path><path d="M321 600L348 546.3L289 600Z" fill="#1e212c" stroke="#1e212c"></path><path d="M311 490.3L348 546.3L407 474.6Z" fill="#2a2934" stroke="#2a2934"></path><path d="M276 40.7L213 213.4L321 190.4Z" fill="#413b43" stroke="#413b43"></path><path d="M213 213.4L158 220.1L230 307.9Z" fill="#36323b" stroke="#36323b"></path><path d="M54 351.9L228 395.6L230 307.9Z" fill="#2a2934" stroke="#2a2934"></path><path d="M227 407.6L214 556.3L311 490.3Z" fill="#2a2934" stroke="#2a2934"></path><path d="M512 33.7L433 80.7L460 144.4Z" fill="#00101c" stroke="#00101c"></path><path d="M460 144.4L390 67.7L378 203.4Z" fill="#61595c" stroke="#61595c"></path><path d="M512 33.7L460 144.4L592 89.7Z" fill="#756f6f" stroke="#756f6f"></path><path d="M433 80.7L390 67.7L460 144.4Z" fill="#2a2934" stroke="#2a2934"></path><path d="M133 460.6L214 556.3L227 407.6Z" fill="#6b6465" stroke="#6b6465"></path><path d="M289 600L348 546.3L311 490.3Z" fill="#756f6f" stroke="#756f6f"></path><path d="M348 546.3L452 600L417 520.3Z" fill="#00101c" stroke="#00101c"></path><path d="M631 344.9L557 288.1L555 302.9Z" fill="#61595c" stroke="#61595c"></path><path d="M557 288.1L609 225.1L494 193.4Z" fill="#2a2934" stroke="#2a2934"></path><path d="M639 412.6L631 344.9L549 379.6Z" fill="#2a2934" stroke="#2a2934"></path><path d="M549 379.6L631 344.9L555 302.9Z" fill="#574f53" stroke="#574f53"></path><path d="M559 561.3L407 474.6L417 520.3Z" fill="#4c454b" stroke="#4c454b"></path><path d="M214 556.3L289 600L311 490.3Z" fill="#61595c" stroke="#61595c"></path><path d="M321 600L452 600L348 546.3Z" fill="#6b6465" stroke="#6b6465"></path><path d="M97 134.4L79 230.1L158 220.1Z" fill="#413b43" stroke="#413b43"></path><path d="M158 220.1L54 351.9L230 307.9Z" fill="#61595c" stroke="#61595c"></path><path d="M390 67.7L276 40.7L321 190.4Z" fill="#36323b" stroke="#36323b"></path><path d="M559 561.3L639 412.6L549 379.6Z" fill="#00101c" stroke="#00101c"></path><path d="M79 230.1L54 351.9L158 220.1Z" fill="#2a2934" stroke="#2a2934"></path><path d="M670 112.7L621 178.4L706 119.4Z" fill="#4c454b" stroke="#4c454b"></path><path d="M609 225.1L621 178.4L494 193.4Z" fill="#756f6f" stroke="#756f6f"></path><path d="M621 178.4L609 225.1L726 219.1Z" fill="#756f6f" stroke="#756f6f"></path><path d="M452 600L559 561.3L417 520.3Z" fill="#61595c" stroke="#61595c"></path><path d="M276 40.7L139 90.7L213 213.4Z" fill="#00101c" stroke="#00101c"></path><path d="M139 90.7L97 134.4L158 220.1Z" fill="#413b43" stroke="#413b43"></path><path d="M0 237.1L0 335.9L54 351.9Z" fill="#1e212c" stroke="#1e212c"></path><path d="M133 460.6L89 510.3L214 556.3Z" fill="#00101c" stroke="#00101c"></path><path d="M214 556.3L154 600L289 600Z" fill="#4c454b" stroke="#4c454b"></path><path d="M0 449.6L89 510.3L133 460.6Z" fill="#756f6f" stroke="#756f6f"></path><path d="M410 0L409 0L390 67.7Z" fill="#61595c" stroke="#61595c"></path><path d="M390 67.7L409 0L276 40.7Z" fill="#1e212c" stroke="#1e212c"></path><path d="M410 0L390 67.7L433 80.7Z" fill="#111924" stroke="#111924"></path><path d="M512 33.7L410 0L433 80.7Z" fill="#413b43" stroke="#413b43"></path><path d="M592 89.7L460 144.4L494 193.4Z" fill="#2a2934" stroke="#2a2934"></path><path d="M89 510.3L154 600L214 556.3Z" fill="#756f6f" stroke="#756f6f"></path><path d="M621 178.4L592 89.7L494 193.4Z" fill="#413b43" stroke="#413b43"></path><path d="M0 237.1L54 351.9L79 230.1Z" fill="#111924" stroke="#111924"></path><path d="M54 351.9L0 449.6L133 460.6Z" fill="#413b43" stroke="#413b43"></path><path d="M0 104.7L0 187.4L97 134.4Z" fill="#574f53" stroke="#574f53"></path><path d="M276 40.7L218 0L139 90.7Z" fill="#413b43" stroke="#413b43"></path><path d="M409 0L218 0L276 40.7Z" fill="#413b43" stroke="#413b43"></path><path d="M452 600L587 600L559 561.3Z" fill="#2a2934" stroke="#2a2934"></path><path d="M559 561.3L658 531.3L639 412.6Z" fill="#413b43" stroke="#413b43"></path><path d="M0 187.4L79 230.1L97 134.4Z" fill="#00101c" stroke="#00101c"></path><path d="M0 187.4L0 237.1L79 230.1Z" fill="#1e212c" stroke="#1e212c"></path><path d="M630 600L658 531.3L559 561.3Z" fill="#413b43" stroke="#413b43"></path><path d="M639 412.6L757 367.9L631 344.9Z" fill="#6b6465" stroke="#6b6465"></path><path d="M658 531.3L705 447.6L639 412.6Z" fill="#1e212c" stroke="#1e212c"></path><path d="M0 335.9L0 449.6L54 351.9Z" fill="#36323b" stroke="#36323b"></path><path d="M89 510.3L40 600L154 600Z" fill="#36323b" stroke="#36323b"></path><path d="M50 84.7L97 134.4L139 90.7Z" fill="#1e212c" stroke="#1e212c"></path><path d="M658 531.3L674 532.3L705 447.6Z" fill="#61595c" stroke="#61595c"></path><path d="M685 600L674 532.3L658 531.3Z" fill="#4c454b" stroke="#4c454b"></path><path d="M218 0L156 0L139 90.7Z" fill="#756f6f" stroke="#756f6f"></path><path d="M621 178.4L670 112.7L592 89.7Z" fill="#4c454b" stroke="#4c454b"></path><path d="M592 89.7L558 0L512 33.7Z" fill="#756f6f" stroke="#756f6f"></path><path d="M726 219.1L609 225.1L631 344.9Z" fill="#61595c" stroke="#61595c"></path><path d="M594 0L558 0L592 89.7Z" fill="#6b6465" stroke="#6b6465"></path><path d="M512 33.7L558 0L410 0Z" fill="#61595c" stroke="#61595c"></path><path d="M587 600L630 600L559 561.3Z" fill="#4c454b" stroke="#4c454b"></path><path d="M760 298.1L726 219.1L631 344.9Z" fill="#6b6465" stroke="#6b6465"></path><path d="M109 0L50 84.7L139 90.7Z" fill="#111924" stroke="#111924"></path><path d="M801 439.6L757 367.9L705 447.6Z" fill="#2a2934" stroke="#2a2934"></path><path d="M705 447.6L757 367.9L639 412.6Z" fill="#1e212c" stroke="#1e212c"></path><path d="M670 112.7L594 0L592 89.7Z" fill="#413b43" stroke="#413b43"></path><path d="M757 367.9L760 298.1L631 344.9Z" fill="#2a2934" stroke="#2a2934"></path><path d="M156 0L109 0L139 90.7Z" fill="#111924" stroke="#111924"></path><path d="M717 0L706 119.4L790 0Z" fill="#574f53" stroke="#574f53"></path><path d="M726 219.1L706 119.4L621 178.4Z" fill="#2a2934" stroke="#2a2934"></path><path d="M670 112.7L717 0L594 0Z" fill="#756f6f" stroke="#756f6f"></path><path d="M0 554.3L40 600L89 510.3Z" fill="#413b43" stroke="#413b43"></path><path d="M50 84.7L0 104.7L97 134.4Z" fill="#36323b" stroke="#36323b"></path><path d="M0 0L0 104.7L50 84.7Z" fill="#61595c" stroke="#61595c"></path><path d="M0 449.6L0 554.3L89 510.3Z" fill="#61595c" stroke="#61595c"></path><path d="M630 600L685 600L658 531.3Z" fill="#36323b" stroke="#36323b"></path><path d="M674 532.3L801 439.6L705 447.6Z" fill="#1e212c" stroke="#1e212c"></path><path d="M0 554.3L0 600L40 600Z" fill="#1e212c" stroke="#1e212c"></path><path d="M847 510.3L801 439.6L674 532.3Z" fill="#111924" stroke="#111924"></path><path d="M757 367.9L852 346.9L760 298.1Z" fill="#413b43" stroke="#413b43"></path><path d="M109 0L0 0L50 84.7Z" fill="#6b6465" stroke="#6b6465"></path><path d="M837 119.4L726 219.1L900 201.4Z" fill="#111924" stroke="#111924"></path><path d="M837 119.4L706 119.4L726 219.1Z" fill="#4c454b" stroke="#4c454b"></path><path d="M706 119.4L717 0L670 112.7Z" fill="#111924" stroke="#111924"></path><path d="M801 439.6L852 346.9L757 367.9Z" fill="#2a2934" stroke="#2a2934"></path><path d="M685 600L847 510.3L674 532.3Z" fill="#61595c" stroke="#61595c"></path><path d="M801 439.6L900 411.6L852 346.9Z" fill="#00101c" stroke="#00101c"></path><path d="M900 201.4L726 219.1L760 298.1Z" fill="#111924" stroke="#111924"></path><path d="M838 66.7L790 0L706 119.4Z" fill="#111924" stroke="#111924"></path><path d="M852 346.9L900 259.1L760 298.1Z" fill="#61595c" stroke="#61595c"></path><path d="M900 411.6L900 325.9L852 346.9Z" fill="#00101c" stroke="#00101c"></path><path d="M900 110.7L838 66.7L837 119.4Z" fill="#4c454b" stroke="#4c454b"></path><path d="M837 119.4L838 66.7L706 119.4Z" fill="#413b43" stroke="#413b43"></path><path d="M900 325.9L900 259.1L852 346.9Z" fill="#4c454b" stroke="#4c454b"></path><path d="M900 491.3L900 411.6L801 439.6Z" fill="#00101c" stroke="#00101c"></path><path d="M900 259.1L900 201.4L760 298.1Z" fill="#61595c" stroke="#61595c"></path><path d="M900 600L900 491.3L847 510.3Z" fill="#6b6465" stroke="#6b6465"></path><path d="M847 510.3L900 491.3L801 439.6Z" fill="#4c454b" stroke="#4c454b"></path><path d="M685 600L860 600L847 510.3Z" fill="#413b43" stroke="#413b43"></path><path d="M900 201.4L900 110.7L837 119.4Z" fill="#1e212c" stroke="#1e212c"></path><path d="M838 66.7L900 0L790 0Z" fill="#36323b" stroke="#36323b"></path><path d="M860 600L900 600L847 510.3Z" fill="#4c454b" stroke="#4c454b"></path><path d="M900 110.7L900 0L838 66.7Z" fill="#36323b" stroke="#36323b"></path></g></svg>